<?plantuml 1.2026.2?><svg xmlns="http://www.w3.org/2000/svg" xmlns:xlink="http://www.w3.org/1999/xlink" contentStyleType="text/css" data-diagram-type="CLASS" height="475.3px" preserveAspectRatio="none" style="width:762px;height:475px;background:#FFFFFF;" version="1.1" viewBox="0 0 762 475" width="763px" zoomAndPan="magnify"><defs/><g><!--class CSVFileStoreProvider--><g class="entity" data-qualified-name="CSVFileStoreProvider" data-source-line="5" id="ent0002"><rect fill="#FFFFFF" height="42.7103" rx="1.75" ry="1.75" style="stroke:#000000;stroke-width:0.7;" width="129.5937" x="459.9" y="90.3"/><ellipse cx="471.5741" cy="100.1" fill="#FFFFFF" rx="6.3" ry="6.3" style="stroke:#000000;stroke-width:0.7;"/><path d="M473.5101,101.1719 L475.1835,101.6969 Q474.8007,103.0859 473.9038,103.7641 Q473.0179,104.4422 471.6398,104.4422 Q469.9445,104.4422 468.8507,103.2828 Q467.7679,102.1234 467.7679,100.1109 Q467.7679,97.9891 468.8616,96.8187 Q469.9554,95.6375 471.7491,95.6375 Q473.3132,95.6375 474.2866,96.5562 Q474.8663,97.1031 475.1616,98.1312 L473.4554,98.5359 Q473.3023,97.8687 472.821,97.4859 Q472.3507,97.1031 471.6616,97.1031 Q470.7101,97.1031 470.1195,97.7922 Q469.5398,98.4703 469.5398,99.9906 Q469.5398,101.5984 470.1195,102.2875 Q470.6991,102.9766 471.6288,102.9766 Q472.3179,102.9766 472.8101,102.5391 Q473.3023,102.1016 473.5101,101.1719 Z " fill="#000000"/><text fill="#000000" font-family="Verdana" font-size="9.8" lengthAdjust="spacing" textLength="104.2733" x="480.5462" y="103.9975">CSVFileStoreProvider</text><line style="stroke:#000000;stroke-width:0.7;" x1="460.6" x2="588.7937" y1="109.9" y2="109.9"/><line style="stroke:#000000;stroke-width:0.7;" x1="460.6" x2="588.7937" y1="115.5" y2="115.5"/><text fill="#000000" font-family="Verdana" font-size="9.8" lengthAdjust="spacing" textLength="121.1937" x="464.1" y="128.1526">+CSVFileStoreProvider()</text></g><!--class OpenConnectorProviderBase--><g class="entity" data-qualified-name="OpenConnectorProviderBase" data-source-line="9" id="ent0003"><rect fill="#FFFFFF" height="66.5308" rx="1.75" ry="1.75" style="stroke:#000000;stroke-width:0.7;" width="425.1249" x="8.4" y="186.9"/><ellipse cx="148.2421" cy="196.7" fill="#FFFFFF" rx="6.3" ry="6.3" style="stroke:#000000;stroke-width:0.7;"/><path d="M150.178,197.7719 L151.8515,198.2969 Q151.4687,199.6859 150.5718,200.3641 Q149.6858,201.0422 148.3077,201.0422 Q146.6124,201.0422 145.5187,199.8828 Q144.4358,198.7234 144.4358,196.7109 Q144.4358,194.5891 145.5296,193.4187 Q146.6233,192.2375 148.4171,192.2375 Q149.9812,192.2375 150.9546,193.1562 Q151.5343,193.7031 151.8296,194.7312 L150.1233,195.1359 Q149.9702,194.4687 149.489,194.0859 Q149.0187,193.7031 148.3296,193.7031 Q147.378,193.7031 146.7874,194.3922 Q146.2077,195.0703 146.2077,196.5906 Q146.2077,198.1984 146.7874,198.8875 Q147.3671,199.5766 148.2968,199.5766 Q148.9858,199.5766 149.478,199.1391 Q149.9702,198.7016 150.178,197.7719 Z " fill="#000000"/><text fill="#000000" font-family="Verdana" font-size="9.8" lengthAdjust="spacing" textLength="140.1907" x="160.4921" y="200.5975">OpenConnectorProviderBase</text><line style="stroke:#000000;stroke-width:0.7;" x1="9.1" x2="432.8249" y1="206.5" y2="206.5"/><text fill="#000000" font-family="Verdana" font-size="9.8" lengthAdjust="spacing" textLength="416.4904" x="12.6" y="219.1526">connectorClassName: String, recognizedConfigurationPropertyNames: List&lt;String&gt;,</text><line style="stroke:#000000;stroke-width:0.7;" x1="9.1" x2="432.8249" y1="224.0103" y2="224.0103"/><text fill="#000000" font-family="Verdana" font-size="9.8" lengthAdjust="spacing" textLength="416.7249" x="12.6" y="236.6629">+OpenConnectorProviderBase(openConnectorDescription: OpenConnectorDefinition,</text><text fill="#000000" font-family="Verdana" font-size="9.8" lengthAdjust="spacing" textLength="336.4204" x="12.6" y="248.5731">implementedInterfaces: List&lt;String&gt;, expectedDataFormat: String)</text></g><!--class ConnectorProviderBase--><g class="entity" data-qualified-name="ConnectorProviderBase" data-source-line="15" id="ent0004"><rect fill="#FFFFFF" height="78.441" rx="1.75" ry="1.75" style="stroke:#000000;stroke-width:0.7;" width="265.1141" x="88.2" y="307.3"/><ellipse cx="160.9662" cy="317.1" fill="#FFFFFF" rx="6.3" ry="6.3" style="stroke:#000000;stroke-width:0.7;"/><path d="M162.9021,318.1719 L164.5755,318.6969 Q164.1927,320.0859 163.2958,320.7641 Q162.4099,321.4422 161.0318,321.4422 Q159.3365,321.4422 158.2427,320.2828 Q157.1599,319.1234 157.1599,317.1109 Q157.1599,314.9891 158.2537,313.8187 Q159.3474,312.6375 161.1412,312.6375 Q162.7052,312.6375 163.6787,313.5562 Q164.2583,314.1031 164.5537,315.1312 L162.8474,315.5359 Q162.6943,314.8687 162.213,314.4859 Q161.7427,314.1031 161.0537,314.1031 Q160.1021,314.1031 159.5115,314.7922 Q158.9318,315.4703 158.9318,316.9906 Q158.9318,318.5984 159.5115,319.2875 Q160.0912,319.9766 161.0208,319.9766 Q161.7099,319.9766 162.2021,319.5391 Q162.6943,319.1016 162.9021,318.1719 Z " fill="#000000"/><text fill="#000000" font-family="Verdana" font-size="9.8" lengthAdjust="spacing" textLength="114.3317" x="173.2162" y="320.9975">ConnectorProviderBase</text><line style="stroke:#000000;stroke-width:0.7;" x1="88.9" x2="352.6141" y1="326.9" y2="326.9"/><text fill="#000000" font-family="Verdana" font-size="9.8" lengthAdjust="spacing" textLength="144.6936" x="92.4" y="339.5526">-connectorClassName: String</text><line style="stroke:#000000;stroke-width:0.7;" x1="88.9" x2="352.6141" y1="344.4103" y2="344.4103"/><text fill="#000000" font-family="Verdana" font-size="9.8" lengthAdjust="spacing" textLength="256.7141" x="92.4" y="357.0629">+getConnector(connection: Connection): Connector</text><text fill="#000000" font-family="Verdana" font-size="9.8" lengthAdjust="spacing" textLength="254.6229" x="92.4" y="368.9731">+setConnectorClassName(className: String): void</text><text fill="#000000" font-family="Verdana" font-size="9.8" lengthAdjust="spacing" textLength="188.4442" x="92.4" y="380.8834">+getConnectorType(): ConnectorType</text></g><!--class CSVFileStoreConnector--><g class="entity" data-qualified-name="CSVFileStoreConnector" data-source-line="22" id="ent0005"><rect fill="#FFFFFF" height="30.8" rx="1.75" ry="1.75" style="stroke:#000000;stroke-width:0.7;" width="133.3479" x="458.15" y="204.75"/><ellipse cx="467.25" cy="214.55" fill="#FFFFFF" rx="6.3" ry="6.3" style="stroke:#000000;stroke-width:0.7;"/><path d="M469.1859,215.6219 L470.8594,216.1469 Q470.4766,217.5359 469.5797,218.2141 Q468.6937,218.8922 467.3156,218.8922 Q465.6203,218.8922 464.5266,217.7328 Q463.4437,216.5734 463.4437,214.5609 Q463.4437,212.4391 464.5375,211.2687 Q465.6312,210.0875 467.425,210.0875 Q468.9891,210.0875 469.9625,211.0062 Q470.5422,211.5531 470.8375,212.5812 L469.1312,212.9859 Q468.9781,212.3187 468.4969,211.9359 Q468.0266,211.5531 467.3375,211.5531 Q466.3859,211.5531 465.7953,212.2422 Q465.2156,212.9203 465.2156,214.4406 Q465.2156,216.0484 465.7953,216.7375 Q466.375,217.4266 467.3047,217.4266 Q467.9937,217.4266 468.4859,216.9891 Q468.9781,216.5516 469.1859,215.6219 Z " fill="#000000"/><text fill="#000000" font-family="Verdana" font-size="9.8" lengthAdjust="spacing" textLength="113.7479" x="475.65" y="218.4475">CSVFileStoreConnector</text><line style="stroke:#000000;stroke-width:0.7;" x1="458.85" x2="590.7979" y1="224.35" y2="224.35"/><line style="stroke:#000000;stroke-width:0.7;" x1="458.85" x2="590.7979" y1="229.95" y2="229.95"/></g><!--class Connector--><g class="entity" data-qualified-name="Connector" data-source-line="23" id="ent0006"><rect fill="#FFFFFF" height="30.8" rx="1.75" ry="1.75" style="stroke:#000000;stroke-width:0.7;" width="69.7293" x="132.65" y="439.6"/><ellipse cx="141.75" cy="449.4" fill="#FFFFFF" rx="6.3" ry="6.3" style="stroke:#000000;stroke-width:0.7;"/><path d="M143.6859,450.4719 L145.3594,450.9969 Q144.9766,452.3859 144.0797,453.0641 Q143.1937,453.7422 141.8156,453.7422 Q140.1203,453.7422 139.0266,452.5828 Q137.9437,451.4234 137.9437,449.4109 Q137.9437,447.2891 139.0375,446.1187 Q140.1312,444.9375 141.925,444.9375 Q143.4891,444.9375 144.4625,445.8562 Q145.0422,446.4031 145.3375,447.4312 L143.6312,447.8359 Q143.4781,447.1687 142.9969,446.7859 Q142.5266,446.4031 141.8375,446.4031 Q140.8859,446.4031 140.2953,447.0922 Q139.7156,447.7703 139.7156,449.2906 Q139.7156,450.8984 140.2953,451.5875 Q140.875,452.2766 141.8047,452.2766 Q142.4937,452.2766 142.9859,451.8391 Q143.4781,451.4016 143.6859,450.4719 Z " fill="#000000"/><text fill="#000000" font-family="Verdana" font-size="9.8" lengthAdjust="spacing" textLength="50.1293" x="150.15" y="453.2975">Connector</text><line style="stroke:#000000;stroke-width:0.7;" x1="133.35" x2="201.6793" y1="459.2" y2="459.2"/><line style="stroke:#000000;stroke-width:0.7;" x1="133.35" x2="201.6793" y1="464.8" y2="464.8"/></g><!--class ConnectorType--><g class="entity" data-qualified-name="ConnectorType" data-source-line="24" id="ent0007"><rect fill="#FFFFFF" height="30.8" rx="1.75" ry="1.75" style="stroke:#000000;stroke-width:0.7;" width="93.5115" x="227.15" y="439.6"/><ellipse cx="236.25" cy="449.4" fill="#FFFFFF" rx="6.3" ry="6.3" style="stroke:#000000;stroke-width:0.7;"/><path d="M238.1859,450.4719 L239.8594,450.9969 Q239.4766,452.3859 238.5797,453.0641 Q237.6937,453.7422 236.3156,453.7422 Q234.6203,453.7422 233.5266,452.5828 Q232.4437,451.4234 232.4437,449.4109 Q232.4437,447.2891 233.5375,446.1187 Q234.6312,444.9375 236.425,444.9375 Q237.9891,444.9375 238.9625,445.8562 Q239.5422,446.4031 239.8375,447.4312 L238.1312,447.8359 Q237.9781,447.1687 237.4969,446.7859 Q237.0266,446.4031 236.3375,446.4031 Q235.3859,446.4031 234.7953,447.0922 Q234.2156,447.7703 234.2156,449.2906 Q234.2156,450.8984 234.7953,451.5875 Q235.375,452.2766 236.3047,452.2766 Q236.9937,452.2766 237.4859,451.8391 Q237.9781,451.4016 238.1859,450.4719 Z " fill="#000000"/><text fill="#000000" font-family="Verdana" font-size="9.8" lengthAdjust="spacing" textLength="73.9115" x="244.65" y="453.2975">ConnectorType</text><line style="stroke:#000000;stroke-width:0.7;" x1="227.85" x2="319.9615" y1="459.2" y2="459.2"/><line style="stroke:#000000;stroke-width:0.7;" x1="227.85" x2="319.9615" y1="464.8" y2="464.8"/></g><!--class OpenConnectorDefinition--><g class="entity" data-qualified-name="OpenConnectorDefinition" data-source-line="25" id="ent0008"><rect fill="#FFFFFF" height="30.8" rx="1.75" ry="1.75" style="stroke:#000000;stroke-width:0.7;" width="142.7029" x="615.65" y="204.75"/><ellipse cx="624.75" cy="214.55" fill="#FFFFFF" rx="6.3" ry="6.3" style="stroke:#000000;stroke-width:0.7;"/><path d="M626.6859,215.6219 L628.3594,216.1469 Q627.9766,217.5359 627.0797,218.2141 Q626.1937,218.8922 624.8156,218.8922 Q623.1203,218.8922 622.0266,217.7328 Q620.9437,216.5734 620.9437,214.5609 Q620.9437,212.4391 622.0375,211.2687 Q623.1312,210.0875 624.925,210.0875 Q626.4891,210.0875 627.4625,211.0062 Q628.0422,211.5531 628.3375,212.5812 L626.6312,212.9859 Q626.4781,212.3187 625.9969,211.9359 Q625.5266,211.5531 624.8375,211.5531 Q623.8859,211.5531 623.2953,212.2422 Q622.7156,212.9203 622.7156,214.4406 Q622.7156,216.0484 623.2953,216.7375 Q623.875,217.4266 624.8047,217.4266 Q625.4937,217.4266 625.9859,216.9891 Q626.4781,216.5516 626.6859,215.6219 Z " fill="#000000"/><text fill="#000000" font-family="Verdana" font-size="9.8" lengthAdjust="spacing" textLength="123.1029" x="633.15" y="218.4475">OpenConnectorDefinition</text><line style="stroke:#000000;stroke-width:0.7;" x1="616.35" x2="757.6529" y1="224.35" y2="224.35"/><line style="stroke:#000000;stroke-width:0.7;" x1="616.35" x2="757.6529" y1="229.95" y2="229.95"/></g><g class="entity" data-qualified-name="GMN15" data-source-line="35" id="ent0016"><path d="M381.85,7.7 L381.85,47.8786 A0,0 0 0 0 381.85,47.8786 L521.85,47.8786 L524.65,90.258 L527.45,47.8786 L667.7815,47.8786 A0,0 0 0 0 667.7815,47.8786 L667.7815,14.7 L660.7815,7.7 L381.85,7.7 A0,0 0 0 0 381.85,7.7" fill="#FFFFFF" style="stroke:#000000;stroke-width:0.7;"/><path d="M660.7815,7.7 L660.7815,14.7 L667.7815,14.7 L660.7815,7.7" fill="#FFFFFF" style="stroke:#000000;stroke-width:0.7;"/><text fill="#000000" font-family="Verdana" font-size="9.1" lengthAdjust="spacing" textLength="112.5503" x="386.05" y="20.3489">Factory Method example</text><text fill="#000000" font-family="Verdana" font-size="9.1" lengthAdjust="spacing" textLength="271.2315" x="386.05" y="31.4084">- a concrete provider selects the connector implementation</text><text fill="#000000" font-family="Verdana" font-size="9.1" lengthAdjust="spacing" textLength="267.9523" x="386.05" y="42.4679">- the example is representative, not the only use in Egeria</text></g><g class="entity" data-qualified-name="GMN18" data-source-line="41" id="ent0019"><path d="M378,331.8 L378,343.7 L353.633,346.5 L378,349.3 L378,360.919 A0,0 0 0 0 378,360.919 L627.7404,360.919 A0,0 0 0 0 627.7404,360.919 L627.7404,338.8 L620.7404,331.8 L378,331.8 A0,0 0 0 0 378,331.8" fill="#FFFFFF" style="stroke:#000000;stroke-width:0.7;"/><path d="M620.7404,331.8 L620.7404,338.8 L627.7404,338.8 L620.7404,331.8" fill="#FFFFFF" style="stroke:#000000;stroke-width:0.7;"/><text fill="#000000" font-family="Verdana" font-size="9.1" lengthAdjust="spacing" textLength="235.0404" x="382.2" y="344.4489">The base provider manages connector instantiation</text><text fill="#000000" font-family="Verdana" font-size="9.1" lengthAdjust="spacing" textLength="159.4277" x="382.2" y="355.5084">through the connector class name.</text></g><!--link CSVFileStoreProvider to OpenConnectorProviderBase--><g class="link" data-entity-1="ent0002" data-entity-2="ent0003" data-link-type="extension" data-source-line="27" id="lnk9"><path codeLine="27" d="M465.892,133.063 C422.597,148.323 374.7491,165.1966 325.0911,182.7036" fill="none" id="CSVFileStoreProvider-to-OpenConnectorProviderBase" style="stroke:#000000;stroke-width:0.7;"/><polygon fill="none" points="313.208,186.893,326.4876,186.6646,323.6947,178.7425,313.208,186.893" style="stroke:#000000;stroke-width:0.7;"/><text fill="#000000" font-family="Verdana" font-size="9.1" lengthAdjust="spacing" textLength="35.9823" x="400.75" y="163.8489">extends</text></g><!--link OpenConnectorProviderBase to ConnectorProviderBase--><g class="link" data-entity-1="ent0003" data-entity-2="ent0004" data-link-type="extension" data-source-line="28" id="lnk10"><path codeLine="28" d="M220.85,253.68 C220.85,270.095 220.85,277.459 220.85,294.602" fill="none" id="OpenConnectorProviderBase-to-ConnectorProviderBase" style="stroke:#000000;stroke-width:0.7;"/><polygon fill="none" points="220.85,307.202,225.05,294.602,216.65,294.602,220.85,307.202" style="stroke:#000000;stroke-width:0.7;"/><text fill="#000000" font-family="Verdana" font-size="9.1" lengthAdjust="spacing" textLength="35.9823" x="221.55" y="284.2489">extends</text></g><!--link CSVFileStoreProvider to CSVFileStoreConnector--><g class="link" data-entity-1="ent0002" data-entity-2="ent0005" data-link-type="dependency" data-source-line="29" id="lnk11"><path codeLine="29" d="M524.65,133.252 C524.65,154.196 524.65,181.706 524.65,200.263" fill="none" id="CSVFileStoreProvider-to-CSVFileStoreConnector" style="stroke:#000000;stroke-width:0.7;"/><polygon fill="#000000" points="524.65,204.463,527.45,198.163,524.65,200.963,521.85,198.163,524.65,204.463" style="stroke:#000000;stroke-width:0.7;"/><text fill="#000000" font-family="Verdana" font-size="9.1" lengthAdjust="spacing" textLength="33.2585" x="525.35" y="163.8489">creates</text><text fill="#000000" font-family="Verdana" font-size="9.1" lengthAdjust="spacing" textLength="5.7853" x="518.5078" y="147.7414">1</text><text fill="#000000" font-family="Verdana" font-size="9.1" lengthAdjust="spacing" textLength="18.1911" x="504.7373" y="197.302">0..*</text></g><!--link ConnectorProviderBase to Connector--><g class="link" data-entity-1="ent0004" data-entity-2="ent0006" data-link-type="association" data-source-line="30" id="lnk12"><path codeLine="30" d="M201.642,385.868 C192.416,404.439 181.902,425.607 175.042,439.425" fill="none" id="ConnectorProviderBase-Connector" style="stroke:#000000;stroke-width:0.7;"/><text fill="#000000" font-family="Verdana" font-size="9.1" lengthAdjust="spacing" textLength="33.2585" x="192.15" y="416.5489">creates</text><text fill="#000000" font-family="Verdana" font-size="9.1" lengthAdjust="spacing" textLength="5.7853" x="193.3824" y="400.4863">1</text><text fill="#000000" font-family="Verdana" font-size="9.1" lengthAdjust="spacing" textLength="18.1911" x="157.2844" y="432.0387">0..*</text></g><!--reverse link ConnectorProviderBase to ConnectorType--><g class="link" data-entity-1="ent0004" data-entity-2="ent0007" data-link-type="aggregation" data-source-line="31" id="lnk13"><path codeLine="31" d="M243.7953,393.3908 C253.0213,411.9618 259.798,425.607 266.658,439.425" fill="none" id="ConnectorProviderBase-backto-ConnectorType" style="stroke:#000000;stroke-width:0.7;"/><polygon fill="none" points="240.058,385.868,239.419,390.8752,243.7953,393.3908,244.4343,388.3836,240.058,385.868" style="stroke:#000000;stroke-width:0.7;"/><text fill="#000000" font-family="Verdana" font-size="9.1" lengthAdjust="spacing" textLength="36.9021" x="256.55" y="416.5489">exposes</text></g><!--link CSVFileStoreProvider to OpenConnectorDefinition--><g class="link" data-entity-1="ent0002" data-entity-2="ent0008" data-link-type="dependency" data-source-line="32" id="lnk14"><path codeLine="32" d="M556.157,133.126 C588.07,154.175 633.1229,183.8876 661.2489,202.4376" fill="none" id="CSVFileStoreProvider-to-OpenConnectorDefinition" style="stroke:#000000;stroke-width:0.7;stroke-dasharray:4.9,4.9;"/><polygon fill="#000000" points="664.755,204.75,661.0374,198.944,661.8332,202.823,657.9542,203.6188,664.755,204.75" style="stroke:#000000;stroke-width:0.7;"/><text fill="#000000" font-family="Verdana" font-size="9.1" lengthAdjust="spacing" textLength="20.6616" x="606.55" y="163.8489">uses</text></g><?plantuml-src ZLHBRzim3BxhLt0vkMjYT5TZ2D0c2r2WtGQas5sr6LkOBGaI4onx_FTHTloeQs-z18d9xy7FPDvHWHM2BQNIGlZlIblfP0LfARs_9NBg-KXudngzLpyHReIeAx3PVzkf4lTa77vrvgGoTF1B05nFLQ8hyQT5Vh6eDqPhJBcZRRYJ7XluR3aomyeMVUgK9MLqyf9oYmUbLIWicIzj7s-2-6TPOG9xdahdIt2OcbppM1c33oe_EXbWB6hHqJaq-mGUbAUF3MGT65LbIuvC4sRt_E4ECdtL1lZ3iYfcMqboPrmbgPKT936VmchUTiWeH-gmqQMr3cBJVRzAUle0yGD8nncbOtQ6dOpAnY9FPulHa38y60moUEMzwcZ8yU-QOc8b-lSdnEIMhLQ_r__OeeJ39zIP5_CzDSN_u9FYYmyBHgzXSHF7xnVJapD7wb0ICiUaHaFISRmPPnZq8h_QhJKUPzp6yNekN8OU0qveGmXaB9Z3v5NpBknam9xX4Qam6KlAS0DXJq662sFNp65RLOybYtdWlvR-_lgxgO-i1eU62naep_Te7VgcuuHBO6TrYz7bEPW5fU5JZav9mIyebF5Ytwcye7g0gTnOwubfdaE4dSbAQfcZ7nhKdgGcrVgZmfbZNep6Q3PMyyt4lOk_?></g></svg>
